<?xml version="1.0" standalone="no"?>
<!DOCTYPE svg PUBLIC "-//W3C//DTD SVG 20010904//EN"
 "http://www.w3.org/TR/2001/REC-SVG-20010904/DTD/svg10.dtd">
<svg version="1.0" xmlns="http://www.w3.org/2000/svg"
 width="348.000000pt" height="352.000000pt" viewBox="0 0 348.000000 352.000000"
 preserveAspectRatio="xMidYMid meet">

<g transform="translate(0.000000,352.000000) scale(0.100000,-0.100000)"
fill="#000000" stroke="none">
<path d="M2250 3008 c-14 -6 -50 -14 -80 -18 -104 -14 -135 -23 -157 -42 -14
-13 -28 -18 -42 -13 -27 8 -71 -17 -96 -54 -19 -29 -95 -71 -128 -71 -7 0 -24
-11 -37 -25 -17 -18 -34 -25 -62 -25 -29 0 -46 -7 -66 -27 -26 -27 -88 -73
-97 -73 -12 0 -3 26 16 47 20 20 20 23 5 29 -9 3 -22 4 -30 1 -8 -3 -17 1 -20
9 -3 8 -15 14 -27 14 l-22 0 21 23 c17 18 19 26 10 35 -17 17 -58 15 -58 -2 0
-14 -41 -46 -60 -46 -5 0 -10 6 -10 14 0 8 -5 18 -10 21 -16 10 -42 -16 -37
-36 3 -10 -1 -20 -8 -23 -16 -6 -37 17 -33 35 2 8 -7 15 -21 17 -21 3 -23 1
-19 -25 3 -15 7 -35 9 -43 3 -9 -4 -16 -19 -18 -18 -3 -22 -9 -20 -30 3 -24
-1 -27 -25 -27 -17 0 -32 -7 -39 -18 -12 -22 -5 -31 22 -32 11 0 20 -3 20 -7
1 -54 0 -57 -27 -60 -22 -2 -29 -9 -31 -31 -3 -27 -1 -28 30 -25 24 2 34 -1
36 -13 2 -10 -5 -19 -18 -22 -12 -3 -20 -13 -20 -26 0 -25 26 -28 51 -5 19 17
39 11 39 -12 0 -8 9 -14 21 -14 15 0 20 -5 17 -22 -2 -19 2 -24 25 -26 15 -2
27 1 27 7 0 22 19 10 39 -25 15 -25 20 -46 16 -63 -6 -28 15 -123 34 -160 6
-11 11 -36 11 -56 0 -46 18 -79 75 -135 42 -41 50 -45 96 -45 46 0 55 -4 98
-43 l48 -44 -23 -23 c-63 -63 -4 -164 105 -181 34 -5 49 -16 88 -63 26 -31 50
-58 53 -61 3 -3 11 -17 17 -32 7 -16 17 -28 23 -28 5 0 10 -6 10 -13 0 -8 10
-23 23 -35 28 -27 83 -29 110 -5 18 17 19 17 32 -2 62 -90 104 -140 195 -235
102 -106 151 -140 202 -140 24 0 42 -28 86 -131 19 -46 19 -47 1 -63 -11 -9
-23 -16 -27 -16 -5 0 -22 -16 -38 -35 -16 -19 -39 -46 -51 -60 -13 -14 -23
-33 -23 -41 0 -7 -5 -14 -10 -14 -18 0 -80 -154 -80 -198 0 -11 -5 -24 -11
-28 -7 -4 -9 -23 -6 -49 4 -29 2 -48 -9 -64 -9 -12 -16 -38 -16 -56 0 -19 -6
-40 -14 -46 -9 -7 -15 -29 -14 -53 0 -23 -1 -54 -3 -71 l-2 -30 405 0 c439 0
410 -3 522 56 20 10 44 19 53 19 15 0 45 14 75 36 8 6 36 18 63 28 l47 18 0
211 0 210 -22 -20 c-26 -23 -89 -53 -111 -53 -8 0 -25 -8 -38 -19 -13 -10 -42
-24 -64 -32 -22 -8 -62 -26 -88 -41 -26 -16 -55 -28 -63 -28 -8 0 -38 -13 -67
-29 -28 -16 -70 -33 -92 -37 -22 -4 -63 -20 -91 -35 -28 -16 -60 -29 -71 -29
-12 0 -34 -6 -50 -14 -33 -17 -93 -33 -188 -50 -38 -7 -74 -14 -80 -16 -5 -1
-22 -2 -37 -1 -33 1 -36 21 -12 70 11 21 14 45 11 68 -3 19 -2 42 2 51 13 26
31 87 31 104 0 8 8 22 18 30 19 16 161 68 186 68 9 0 24 4 34 9 9 5 49 19 87
31 39 13 74 27 80 31 5 5 18 9 28 9 10 0 33 7 50 16 58 31 67 34 82 34 8 0 41
14 72 30 31 17 61 30 68 30 7 0 24 9 38 20 14 11 32 20 41 20 8 0 35 13 58 29
24 16 45 25 46 20 2 -5 11 -9 20 -9 10 0 23 -9 30 -20 7 -11 19 -20 27 -20 8
0 15 -7 15 -15 0 -12 28 -35 44 -35 16 0 3 53 -16 70 -13 12 -30 27 -38 34
-21 19 -92 56 -107 56 -8 0 -21 4 -31 9 -42 21 -85 28 -161 27 l-81 -1 -17 45
c-9 25 -20 50 -23 55 -4 6 -12 25 -19 44 -9 29 -8 38 12 70 19 31 22 52 24
146 1 61 -2 136 -8 169 -6 32 -11 77 -11 100 0 22 -7 58 -15 78 -20 51 -14 70
22 74 61 6 96 89 60 141 -8 11 -17 36 -19 54 -3 19 -10 62 -17 97 -11 59 -10
66 15 121 32 72 33 98 3 142 -17 25 -31 35 -55 37 -18 2 -32 6 -33 10 -9 64
-6 92 9 92 10 0 26 -7 36 -15 28 -21 46 -19 114 15 61 30 72 45 72 103 0 27
-13 36 -25 17 -6 -10 -75 -15 -75 -6 0 3 14 25 30 49 29 44 37 67 23 67 -5 -1
-27 -5 -50 -9 -23 -5 -44 -6 -47 -4 -2 2 16 25 40 50 49 50 60 89 22 77 -42
-13 -87 -22 -92 -17 -2 2 7 23 20 46 27 48 32 97 9 97 -8 0 -15 -3 -15 -7 0
-10 -52 -34 -58 -28 -3 2 2 15 10 27 8 13 18 38 21 56 8 41 -14 53 -44 26 -23
-20 -46 -23 -209 -25 -72 -1 -111 -6 -125 -15 -11 -8 -32 -14 -48 -14 -15 0
-39 -7 -52 -16 -30 -20 -52 -13 -57 17 -3 23 -55 56 -128 83 -19 7 -42 16 -50
19 -8 3 -26 1 -40 -5z m-122 -88 c-16 -16 -34 -30 -39 -30 -5 0 -19 -16 -30
-35 -15 -25 -32 -38 -60 -45 -22 -6 -44 -20 -50 -33 -7 -12 -23 -33 -36 -47
-80 -83 -114 -124 -134 -160 -13 -22 -28 -40 -35 -40 -7 0 -22 -12 -33 -27
-12 -16 -42 -54 -66 -86 -25 -32 -50 -69 -55 -82 -5 -14 -20 -30 -33 -36 -14
-6 -32 -26 -40 -45 -9 -19 -31 -46 -48 -62 -17 -15 -40 -35 -50 -44 -25 -24
-26 -23 -33 17 -3 19 -9 51 -12 70 -5 30 -3 35 19 40 15 4 37 24 53 48 14 23
35 51 46 63 16 18 17 25 7 48 -7 14 -18 26 -26 26 -16 0 -16 -5 -1 -30 10 -15
10 -22 1 -31 -9 -9 -17 -4 -32 22 -16 26 -21 29 -26 17 -4 -9 -2 -25 4 -37 6
-11 11 -27 11 -35 0 -25 -19 -18 -26 9 -3 14 -12 25 -20 25 -18 0 -18 -18 0
-52 10 -18 11 -30 4 -34 -16 -10 -38 19 -45 59 -4 30 -1 42 21 67 14 18 26 40
26 51 0 10 7 19 15 19 8 0 22 16 31 36 10 20 29 44 44 53 14 9 35 24 45 34 76
67 104 85 142 92 23 3 54 17 68 31 14 13 35 24 46 24 34 0 93 36 127 80 29 35
38 40 62 35 20 -4 38 1 66 20 21 14 43 24 49 21 7 -2 18 0 26 5 8 5 22 9 31 9
12 0 9 -7 -14 -30z m542 -569 c0 -16 121 -131 159 -151 l36 -18 -25 -10 c-21
-8 -31 -4 -60 20 -89 75 -231 75 -315 1 -43 -38 -76 -115 -83 -195 -1 -9 -15
-21 -32 -26 -26 -10 -33 -7 -61 19 -17 16 -37 30 -45 30 -28 3 -32 4 -40 12
-11 10 -103 9 -145 -3 -39 -11 -139 -97 -139 -120 0 -30 -17 7 -29 62 -7 31
-19 62 -27 68 -16 14 -19 40 -4 40 5 0 29 -20 52 -45 23 -25 48 -45 55 -45 20
0 26 47 13 95 -7 24 -10 51 -7 59 3 8 -3 22 -14 32 -10 9 -19 25 -19 34 0 9
-7 25 -15 36 -16 22 -19 50 -6 59 6 3 26 -4 46 -15 19 -11 46 -20 59 -20 14 0
28 -9 36 -25 8 -15 22 -25 35 -25 12 0 34 -14 51 -31 25 -26 34 -30 64 -25 19
4 49 6 65 6 17 0 53 11 80 25 28 14 57 25 65 25 8 0 24 7 34 15 11 8 28 15 38
15 9 0 22 9 28 20 6 12 21 20 35 20 15 0 31 10 42 26 21 32 73 57 73 35z m340
-90 c14 -27 13 -62 -5 -105 -20 -47 -27 -46 -24 7 3 52 -7 73 -27 56 -24 -20
-9 -180 20 -204 7 -5 13 -19 13 -30 3 -43 13 -86 28 -121 30 -71 9 -120 -40
-94 -25 13 -28 25 -56 237 -11 85 -13 127 -10 194 1 31 45 79 72 79 10 0 23
-9 29 -19z m-310 -82 c98 -36 134 -185 65 -265 -14 -16 -25 -32 -25 -35 0 -4
-19 -13 -42 -22 -50 -19 -111 -14 -164 13 -98 50 -117 197 -35 273 60 55 121
66 201 36z m168 -74 c-3 -3 -2 -26 3 -50 5 -25 11 -71 14 -102 11 -111 15
-138 29 -198 8 -33 12 -63 10 -67 -3 -4 2 -22 10 -40 8 -18 17 -62 21 -98 4
-36 9 -75 10 -87 5 -35 8 -124 6 -195 -1 -59 -5 -71 -28 -97 -47 -50 -194
-118 -353 -162 -55 -15 -68 -15 -90 -4 -40 21 -149 119 -182 164 -16 23 -33
41 -37 41 -4 0 -22 22 -40 50 -18 28 -36 50 -41 50 -5 0 -12 9 -15 20 -4 12
-24 40 -46 63 -22 23 -47 55 -56 72 -9 16 -33 46 -54 68 -22 21 -39 41 -39 46
0 4 -22 32 -50 62 -33 36 -46 57 -40 63 7 7 23 -3 48 -31 52 -59 105 -85 177
-89 105 -6 170 27 212 109 27 55 33 139 13 177 -9 17 -6 22 22 34 31 13 34 12
50 -8 55 -71 92 -91 186 -103 115 -13 220 63 240 173 6 33 7 78 2 102 -6 34
-5 42 8 42 8 0 13 -2 10 -5z m-651 -145 c101 -56 122 -200 41 -277 -43 -40
-83 -52 -140 -43 -44 6 -118 46 -118 63 0 4 -9 17 -19 29 -23 24 -36 85 -24
113 15 35 55 95 64 95 4 0 24 11 44 24 43 30 96 28 152 -4z m-369 -70 l53 -24
-3 -45 c-4 -52 -18 -62 -35 -23 -14 31 -40 67 -65 90 -18 16 -25 37 -10 30 4
-3 31 -15 60 -28z m-47 -156 c14 -7 44 -37 66 -66 22 -29 52 -66 67 -81 14
-15 26 -32 26 -37 0 -4 20 -29 45 -54 25 -26 45 -53 45 -61 0 -8 7 -18 16 -23
24 -13 13 -46 -17 -50 -20 -2 -30 5 -52 38 -15 23 -27 45 -27 49 0 4 -16 22
-35 41 -19 19 -35 41 -35 48 0 6 -4 12 -10 12 -5 0 -10 6 -10 13 0 26 -90 137
-110 137 -29 0 -25 -19 12 -57 17 -18 28 -36 25 -40 -4 -4 -13 -1 -19 5 -7 7
-19 12 -29 12 -27 0 -69 50 -69 81 0 45 56 62 111 33z m1147 -740 c13 -3 29
-18 39 -39 16 -33 16 -36 -3 -49 -27 -21 -234 -109 -241 -103 -2 3 -18 1 -34
-3 -24 -7 -31 -6 -36 8 -7 22 -29 66 -58 119 l-24 42 37 6 c20 3 62 10 92 15
94 17 161 18 228 4z"/>
<path d="M2590 2050 c-17 -32 -3 -60 29 -60 39 0 57 23 43 55 -14 31 -57 34
-72 5z"/>
<path d="M2760 1756 c0 -8 5 -18 10 -21 12 -7 -19 -63 -60 -108 -63 -71 -247
-150 -347 -150 -97 1 -103 2 -113 27 -21 56 -46 36 -45 -38 0 -52 22 -76 32
-37 4 17 10 20 27 14 11 -4 53 -7 91 -6 76 1 219 43 291 85 48 27 114 92 139
136 20 34 30 39 40 22 8 -13 25 -3 25 13 0 19 -57 77 -74 77 -9 0 -16 -6 -16
-14z"/>
<path d="M2551 1684 c-25 -25 -110 -54 -161 -54 -25 0 -31 -4 -28 -17 11 -57
248 16 248 77 0 27 -29 24 -59 -6z"/>
<path d="M2713 1324 c-8 -21 13 -42 28 -27 13 13 5 43 -11 43 -6 0 -13 -7 -17
-16z"/>
<path d="M2655 1294 c-16 -7 -44 -13 -61 -14 -39 0 -61 -22 -40 -39 25 -21
146 15 146 44 0 21 -12 24 -45 9z"/>
<path d="M2090 1839 c-9 -16 -8 -26 5 -45 18 -28 16 -27 49 -14 28 10 35 47
14 68 -19 19 -56 14 -68 -9z"/>
</g>
</svg>
